<?xml version="1.0" standalone="no"?><!DOCTYPE svg PUBLIC "-//W3C//DTD SVG 1.1//EN" "http://www.w3.org/Graphics/SVG/1.1/DTD/svg11.dtd"><svg t="1670424826432" class="icon" viewBox="0 0 1025 1024" version="1.1" xmlns="http://www.w3.org/2000/svg" p-id="8717" xmlns:xlink="http://www.w3.org/1999/xlink" width="200.1953125" height="200"><path d="M513.348815 1024c-68.939409 0-135.780662-13.488145-198.825252-40.164699-60.846522-25.677432-115.398575-62.545029-162.357303-109.403844-46.858815-46.858815-83.726412-101.510782-109.403844-162.357303-26.676554-62.944678-40.164699-129.885843-40.164699-198.825252s13.488145-135.780662 40.164699-198.825251c25.677432-60.846522 62.545029-115.398575 109.403844-162.357303 46.958728-46.858815 101.610694-83.6265 162.457215-109.403844 62.944678-26.676554 129.885843-40.164699 198.825252-40.164699s135.780662 13.488145 198.825251 40.164699c60.846522 25.677432 115.398575 62.545029 162.357303 109.403844 46.858815 46.858815 83.726412 101.510782 109.403844 162.357303 26.676554 62.944678 40.164699 129.885843 40.164699 198.825251s-13.488145 135.780662-40.164699 198.825252c-25.677432 60.846522-62.545029 115.398575-109.403844 162.357303-46.858815 46.858815-101.510782 83.726412-162.357303 109.403844-63.04459 26.676554-129.985755 40.164699-198.925163 40.164699z m0-945.568934c-239.789248 0-434.817836 195.028588-434.817836 434.817836s195.028588 434.817836 434.817836 434.817836S948.16665 753.03815 948.16665 513.248902c0-239.689336-195.028588-434.817836-434.817835-434.817836z" fill="#303333" p-id="8718"></path><path d="M512.549517 806.291345c-20.981559 0-37.966631-16.985072-37.966631-37.96663V395.652259c0-20.981559 16.985072-37.966631 37.966631-37.966631s37.966631 16.985072 37.966631 37.966631v372.672456c0 20.981559-16.985072 37.966631-37.966631 37.96663z" fill="#303333" p-id="8719"></path><path d="M510.85101 252.777832m-52.753635 0a52.753635 52.753635 0 1 0 105.507269 0 52.753635 52.753635 0 1 0-105.507269 0Z" fill="#303333" p-id="8720"></path></svg>