<?xml version="1.0" standalone="no"?><!DOCTYPE svg PUBLIC "-//W3C//DTD SVG 1.1//EN" "http://www.w3.org/Graphics/SVG/1.1/DTD/svg11.dtd"><svg t="1670849367231" class="icon" viewBox="0 0 1024 1024" version="1.1" xmlns="http://www.w3.org/2000/svg" p-id="35107" xmlns:xlink="http://www.w3.org/1999/xlink" width="200" height="200"><path d="M0 0m204.8 0l614.4 0q204.8 0 204.8 204.8l0 614.4q0 204.8-204.8 204.8l-614.4 0q-204.8 0-204.8-204.8l0-614.4q0-204.8 204.8-204.8Z" fill="#95EFC2" p-id="35108"></path><path d="M819.2 0H534.272A756.48 756.48 0 0 0 0 483.584V819.2a204.8 204.8 0 0 0 204.8 204.8h614.4a204.8 204.8 0 0 0 204.8-204.8V204.8a204.8 204.8 0 0 0-204.8-204.8z" fill="#88EDBF" p-id="35109"></path><path d="M819.2 0h-3.84a755.2 755.2 0 0 0-539.392 1024H819.2a204.8 204.8 0 0 0 204.8-204.8V204.8a204.8 204.8 0 0 0-204.8-204.8z" fill="#79E8B8" p-id="35110"></path><path d="M497.152 721.152A752.384 752.384 0 0 0 560.384 1024H819.2a204.8 204.8 0 0 0 204.8-204.8V204.8a204.8 204.8 0 0 0-89.088-168.96 755.2 755.2 0 0 0-437.76 685.312z" fill="#69E2B3" p-id="35111"></path><path d="M475.648 844.8l-251.648-177.152a51.2 51.2 0 0 1-12.544-71.424L477.184 216.832a51.2 51.2 0 0 1 36.352-21.504l225.28-25.6a25.6 25.6 0 0 1 27.648 19.456L819.2 409.6a51.2 51.2 0 0 1-7.68 41.472L546.816 831.232a51.2 51.2 0 0 1-71.168 13.568z" fill="#D7FFE9" p-id="35112"></path><path d="M766.208 190.464a25.6 25.6 0 0 0-27.648-19.456l-225.28 25.6a51.2 51.2 0 0 0-36.352 21.504L211.456 596.48a51.2 51.2 0 0 0 12.544 71.424l15.36 10.752a889.088 889.088 0 0 0 340.224-46.848 998.4 998.4 0 0 0 153.6-64.768l80.64-114.944A51.2 51.2 0 0 0 819.2 409.6z" fill="#FFFFFF" p-id="35113"></path><path d="M658.132334 315.308119m-29.367113 41.940584a51.2 51.2 0 1 0 58.734227-83.881169 51.2 51.2 0 1 0-58.734227 83.881169Z" fill="#79E8B8" p-id="35114"></path><path d="M353.825141 571.354544m20.970292 14.683557l125.821754 88.101341q20.970292 14.683557 6.286736 35.653849l0 0q-14.683557 20.970292-35.653849 6.286735l-125.821754-88.10134q-20.970292-14.683557-6.286736-35.653849l0 0q14.683557-20.970292 35.653849-6.286736Z" fill="#79E8B8" p-id="35115"></path></svg>