<?xml version="1.0" standalone="no"?><!DOCTYPE svg PUBLIC "-//W3C//DTD SVG 1.1//EN" "http://www.w3.org/Graphics/SVG/1.1/DTD/svg11.dtd"><svg t="1670508341233" class="icon" viewBox="0 0 1024 1024" version="1.1" xmlns="http://www.w3.org/2000/svg" p-id="30547" xmlns:xlink="http://www.w3.org/1999/xlink" width="200" height="200"><path d="M0 0h1024v1024H0z" fill="#202425" opacity=".01" p-id="30548"></path><path d="M238.933333 136.533333a102.4 102.4 0 0 0-102.4 102.4v546.133334a102.4 102.4 0 0 0 102.4 102.4h512V238.933333a102.4 102.4 0 0 0-102.4-102.4H238.933333z m409.6-68.266666a170.734933 170.734933 0 0 1 167.253334 136.533333H853.333333a102.4 102.4 0 0 1 102.4 102.4v546.133333a102.4 102.4 0 0 1-102.4 102.4H238.933333a170.666667 170.666667 0 0 1-170.666666-170.666666V238.933333a170.666667 170.666667 0 0 1 170.666666-170.666666h409.6z m204.8 819.2a34.133333 34.133333 0 0 0 34.133334-34.133334V307.2a34.133333 34.133333 0 0 0-34.133334-34.133333h-34.133333v614.4h34.133333zM238.933333 307.2a34.133333 34.133333 0 0 0 0 68.266667h409.6a34.133333 34.133333 0 1 0 0-68.266667H238.933333z m0 136.533333a34.133333 34.133333 0 1 0 0 68.266667h409.6a34.133333 34.133333 0 1 0 0-68.266667H238.933333z m-34.133333 170.666667a34.133333 34.133333 0 0 1 34.133333-34.133333h204.8a34.133333 34.133333 0 1 1 0 68.266666H238.933333a34.133333 34.133333 0 0 1-34.133333-34.133333z" fill="#202425" p-id="30549"></path></svg>