<?xml version="1.0" standalone="no"?><!DOCTYPE svg PUBLIC "-//W3C//DTD SVG 1.1//EN" "http://www.w3.org/Graphics/SVG/1.1/DTD/svg11.dtd"><svg t="1679316935583" class="icon" viewBox="0 0 1080 1024" version="1.1" xmlns="http://www.w3.org/2000/svg" p-id="7064" xmlns:xlink="http://www.w3.org/1999/xlink" width="135" height="128"><path d="M1076.33046 381.492583c-9.654877-27.3053-34.128422-46.922575-63.868263-51.202242l-278.626816-40.535109-121.105604-245.927086c-13.101675-26.626191-41.540958-43.828146-72.485257-43.828146-30.841791 0-59.274668 17.201955-72.453223 43.828146L346.666473 289.748825l-278.633223 40.541516c-29.752654 4.279667-54.213385 23.896942-63.842636 51.208649-9.59081 27.36296-2.447354 57.109208 18.649866 77.629826l204.213147 199.485012-47.351823 276.57027c-5.022843 29.105579 7.579111 57.80113 32.891931 74.906985a82.864089 82.864089 0 0 0 46.070486 13.90251c13.383569 0 26.773545-3.26741 38.728423-9.462676l242.871096-127.941539 242.935164 127.960759a84.19668 84.19668 0 0 0 38.632322 9.45627c16.490812 0 32.437056-4.805015 46.108927-13.908918 25.280787-17.080227 37.889147-45.782185 32.885524-74.900577l-47.351824-276.57027 204.238775-199.485013c21.103627-20.571872 28.23427-50.324526 18.617832-77.649046zM232.659478 943.897193l47.563244-277.806761a49.767144 49.767144 0 0 0-14.376605-43.892213L60.68478 421.790644c-6.368247-6.201673-8.56574-15.042901-5.740392-23.076887 2.99833-8.540114 11.230922-14.959614 20.975493-16.356271l279.882528-40.733716c16.84318-2.434541 31.309479-12.851814 38.702796-27.869089l121.618139-247.003409c4.241227-8.591367 13.703903-14.145965 24.11477-14.145965 10.455713 0 19.91839 5.528971 24.114769 14.088304l121.701426 247.06107c7.380503 15.004461 21.833989 25.421734 38.651543 27.869089l279.953001 40.733716c9.699724 1.396658 17.893877 7.784125 20.905019 16.260171 2.844569 8.098052 0.634262 17.003347-5.772425 23.243461l-205.142117 200.343508a49.767144 49.767144 0 0 0-14.344572 43.892213l47.563244 277.864421c1.479945 8.713094-2.389694 17.381342-10.116159 22.589978-8.4312 5.663511-20.168251 6.26574-29.118392 1.640112l-244.088367-128.588615c-14.927581-7.771311-33.49416-7.828971-48.601127 0.006407L272.156704 968.082436c-8.918108 4.651255-20.9819 4.10028-29.099173-1.358218-7.931478-5.33677-11.916438-14.075491-10.398053-22.827025z" p-id="7065" fill="#d81e06"></path></svg>