<?xml version="1.0" standalone="no"?><!DOCTYPE svg PUBLIC "-//W3C//DTD SVG 1.1//EN" "http://www.w3.org/Graphics/SVG/1.1/DTD/svg11.dtd"><svg t="1670719788857" class="icon" viewBox="0 0 1024 1024" version="1.1" xmlns="http://www.w3.org/2000/svg" p-id="4181" xmlns:xlink="http://www.w3.org/1999/xlink" width="200" height="200"><path d="M512 36.571429c262.729143 0 475.428571 185.161143 475.428571 415.378285 0 230.217143-212.699429 415.378286-475.428571 415.378286-32.548571 0-60.050286-2.523429-90.075429-7.497143L214.198857 987.428571v-210.176C106.678857 699.684571 36.571429 582.070857 36.571429 451.949714 36.571429 221.732571 249.270857 36.571429 512 36.571429z m-128.365714 760.941714a73.142857 73.142857 0 0 1 50.322285-9.874286c27.062857 4.534857 50.541714 6.546286 78.043429 6.546286 224.658286 0 402.285714-155.062857 402.285714-342.235429C914.285714 264.740571 736.658286 109.714286 512 109.714286S109.714286 264.777143 109.714286 451.949714c0 101.668571 54.418286 199.021714 147.273143 265.947429a73.142857 73.142857 0 0 1 30.354285 59.355428v79.36l96.292572-59.099428z m311.222857-333.165714c0-29.732571 25.161143-54.857143 54.857143-54.857143 29.732571 0 54.857143 25.124571 54.857143 54.857143 0 29.696-25.161143 54.857143-54.857143 54.857142a55.588571 55.588571 0 0 1-54.857143-54.857142z m-420.571429-54.857143c-29.732571 0-54.857143 25.124571-54.857143 54.857143 0 29.696 25.161143 54.857143 54.857143 54.857142 29.732571 0 54.857143-25.161143 54.857143-54.857142 0-29.732571-25.161143-54.857143-54.857143-54.857143z m182.857143 54.857143c0 29.696 25.161143 54.857143 54.857143 54.857142 29.732571 0 54.857143-25.161143 54.857143-54.857142 0-29.732571-25.161143-54.857143-54.857143-54.857143-29.732571 0-54.857143 25.124571-54.857143 54.857143z" p-id="4182"></path></svg>