<?xml version="1.0" standalone="no"?><!DOCTYPE svg PUBLIC "-//W3C//DTD SVG 1.1//EN" "http://www.w3.org/Graphics/SVG/1.1/DTD/svg11.dtd"><svg t="1670720173991" class="icon" viewBox="0 0 1024 1024" version="1.1" xmlns="http://www.w3.org/2000/svg" p-id="17735" xmlns:xlink="http://www.w3.org/1999/xlink" width="200" height="200"><path d="M512 0a512 512 0 1 1 0 1024A512 512 0 0 1 512 0z m0 85.357714a426.642286 426.642286 0 1 0 0 853.284572A426.642286 426.642286 0 0 0 512 85.357714z m-29.549714 156.452572c24.064 0 43.52 19.456 43.52 43.52v268.141714h223.890285a43.52 43.52 0 1 1 0 87.04h-223.817142A87.04 87.04 0 0 1 438.857143 553.545143V285.257143c0-24.064 19.456-43.52 43.593143-43.52z" p-id="17736"></path></svg>