<?xml version="1.0" standalone="no"?><!DOCTYPE svg PUBLIC "-//W3C//DTD SVG 1.1//EN" "http://www.w3.org/Graphics/SVG/1.1/DTD/svg11.dtd"><svg t="1680683998721" class="icon" viewBox="0 0 1024 1024" version="1.1" xmlns="http://www.w3.org/2000/svg" p-id="6192" xmlns:xlink="http://www.w3.org/1999/xlink" width="200" height="200"><path d="M917.4 270.1L786.7 140c-2.8-2.8-6.6-4.4-10.6-4.4H247.9c-4 0-7.8 1.6-10.6 4.4L106.5 271.1c-5 5-5.8 13-1.8 18.9l395.8 591.6c2.8 4.2 7.4 6.7 12.5 6.7 5 0 9.7-2.5 12.5-6.7L919.3 289c4-5.9 3.2-13.9-1.9-18.9zM771.6 161.7L879 268.5H718l-52.7-106.8h106.3zM303.2 294.5l166.3 494.2-330.6-494.2h164.3z m27.4 0h361.2l-179 541.4-182.2-541.4z m388.6 0h165.3L555.6 789.2l163.6-494.7z m-82.8-132.8L689 268.5H333.7l53.8-106.8h248.9z m-383.9 0h106l-53.8 106.8H145.9l106.6-106.8z" fill="" p-id="6193"></path></svg>