<?xml version="1.0" standalone="no"?><!DOCTYPE svg PUBLIC "-//W3C//DTD SVG 1.1//EN" "http://www.w3.org/Graphics/SVG/1.1/DTD/svg11.dtd"><svg t="1679669558833" class="icon" viewBox="0 0 1035 1024" version="1.1" xmlns="http://www.w3.org/2000/svg" p-id="3252" xmlns:xlink="http://www.w3.org/1999/xlink" width="129.375" height="128"><path d="M465.454545 942.312727a33.978182 33.978182 0 0 1-23.272727-10.24L76.8 558.545455a293.003636 293.003636 0 0 1 0-395.636364 254.138182 254.138182 0 0 1 375.389091 0l40.494545 43.287273A34.909091 34.909091 0 0 1 442.181818 256l-41.658182-43.985455a184.087273 184.087273 0 0 0-273.221818 0 222.254545 222.254545 0 0 0 0 299.985455l362.589091 370.036364A35.374545 35.374545 0 0 1 465.454545 942.312727z" fill="#ffffff" p-id="3253"></path><path d="M742.4 660.247273a34.909091 34.909091 0 0 1-24.901818-59.345455l88.203636-90.298182a222.254545 222.254545 0 0 0 0-298.589091 184.32 184.32 0 0 0-273.454545 0L491.287273 256a34.909091 34.909091 0 0 1-50.967273-47.709091l40.494545-43.287273a254.138182 254.138182 0 0 1 375.389091 0 293.469091 293.469091 0 0 1 0 395.636364L768 649.774545a34.443636 34.443636 0 0 1-25.6 10.472728zM470.341818 938.589091a34.443636 34.443636 0 0 1-24.436363-10.007273 35.141818 35.141818 0 0 1 0-49.338182l100.538181-102.632727a34.909091 34.909091 0 0 1 50.036364 48.64l-100.538182 102.865455a34.443636 34.443636 0 0 1-25.6 10.472727z" fill="#ffffff" p-id="3254"></path><path d="M1001.890909 583.68l-229.701818 245.76a33.512727 33.512727 0 0 1-49.338182 0l-3.025454-3.258182a39.563636 39.563636 0 0 1 0-52.829091l229.701818-245.527272a33.28 33.28 0 0 1 49.338182 0l3.025454 3.258181a39.330909 39.330909 0 0 1 0 52.596364z" fill="#ffffff" p-id="3255"></path><path d="M654.661818 651.636364L768 779.636364a40.261818 40.261818 0 0 1 0 53.992727l-1.861818 1.861818a34.210909 34.210909 0 0 1-50.501818-1.629091l-114.036364-128.698182a40.261818 40.261818 0 0 1 0.698182-53.527272l2.792727-2.327273a33.978182 33.978182 0 0 1 49.570909 2.327273z" fill="#ffffff" p-id="3256"></path></svg>