<?xml version="1.0" standalone="no"?><!DOCTYPE svg PUBLIC "-//W3C//DTD SVG 1.1//EN" "http://www.w3.org/Graphics/SVG/1.1/DTD/svg11.dtd"><svg t="1670423711342" class="icon" viewBox="0 0 1024 1024" version="1.1" xmlns="http://www.w3.org/2000/svg" p-id="1873" xmlns:xlink="http://www.w3.org/1999/xlink" width="200" height="200"><path d="M716.597 158.403C660.878 102.686 586.797 72 508 72s-152.878 30.686-208.597 86.403C243.686 214.122 213 288.203 213 367s30.686 152.878 86.403 208.597c49.783 49.782 114.229 79.56 183.597 85.344 8.27 0.69 16.606 1.059 25 1.059a300.16 300.16 0 0 0 31-1.615c67.079-6.961 129.251-36.444 177.597-84.789C772.314 519.878 803 445.797 803 367s-30.686-152.878-86.403-208.597zM508 606c-131.785 0-239-107.215-239-239s107.215-239 239-239 239 107.215 239 239-107.215 239-239 239zM637 751h-98v-80.615A300.16 300.16 0 0 1 508 672c-8.394 0-16.73-0.37-25-1.059V751h-98c-19.33 0-35 15.67-35 35s15.67 35 35 35h98v123c0 15.464 12.536 28 28 28s28-12.536 28-28V821h98c19.33 0 35-15.67 35-35s-15.67-35-35-35z" p-id="1874"></path></svg>