<?xml version="1.0" standalone="no"?><!DOCTYPE svg PUBLIC "-//W3C//DTD SVG 1.1//EN" "http://www.w3.org/Graphics/SVG/1.1/DTD/svg11.dtd"><svg t="1670676650403" class="icon" viewBox="0 0 1024 1024" version="1.1" xmlns="http://www.w3.org/2000/svg" p-id="3131" xmlns:xlink="http://www.w3.org/1999/xlink" width="200" height="200"><path d="M512 614.4c-21.230933 0-40.96 10.922667-52.224 28.945067L307.2 887.466667h409.6L564.224 643.345067A61.576533 61.576533 0 0 0 512 614.4zM512 409.6a204.8 204.8 0 0 0 204.8-204.8H307.2a204.8 204.8 0 0 0 204.8 204.8z" p-id="3132"></path><path d="M68.266667 0a34.133333 34.133333 0 0 0 0 68.266667H170.666667v136.533333a341.333333 341.333333 0 0 0 192.375466 307.2A341.333333 341.333333 0 0 0 170.666667 819.2v136.533333H68.266667a34.133333 34.133333 0 0 0 0 68.266667h887.466666a34.133333 34.133333 0 0 0 0-68.266667H853.333333v-136.533333a341.333333 341.333333 0 0 0-192.375466-307.2A341.333333 341.333333 0 0 0 853.333333 204.8V68.266667h102.4a34.133333 34.133333 0 0 0 0-68.266667H68.266667zM512 546.133333a273.066667 273.066667 0 0 1 273.066667 273.066667v136.533333H238.933333v-136.533333a273.066667 273.066667 0 0 1 273.066667-273.066667z m273.066667-341.333333a273.066667 273.066667 0 1 1-546.133334 0V68.266667h546.133334v136.533333z" p-id="3133"></path></svg>