<?xml version="1.0" standalone="no"?><!DOCTYPE svg PUBLIC "-//W3C//DTD SVG 1.1//EN" "http://www.w3.org/Graphics/SVG/1.1/DTD/svg11.dtd"><svg t="1676627898844" class="icon" viewBox="0 0 1024 1024" version="1.1" xmlns="http://www.w3.org/2000/svg" p-id="2723" xmlns:xlink="http://www.w3.org/1999/xlink" width="128" height="128"><path d="M284.844032 127.171584l-0.04608 73.89696c65.524736 0 124.601344 47.434752 157.989888 126.839808 11.497472 27.420672 38.340608 45.321216 68.124672 45.321216 0 0 0 0 0.094208 0 29.734912-0.09728 56.574976-17.993728 68.07552-45.420544 37.763072-90.56256 109.451264-122.843136 164.000768-122.843136 38.780928 0 73.801728 14.959616 98.58048 42.144768 31.609856 34.635776 45.171712 86.956032 39.25504 151.232512-8.94464 97.370112-91.358208 162.029568-171.124736 224.474112-30.212096 23.769088-58.785792 46.184448-83.899392 70.629376-50.518016 48.970752-85.490688 78.608384-113.6384 102.469632-4.52096-3.943424-9.237504-7.986176-14.140416-12.218368-25.788416-22.130688-57.829376-49.744896-103.2448-91.603968-24.728576-22.79936-52.825088-43.679744-82.556928-65.81248C230.145024 565.088256 145.134592 501.870592 141.526016 404.206592c-2.598912-68.70016 15.299584-126.547968 50.323456-162.921472 24.968192-25.930752 58.01984-40.2176 92.94848-40.2176L284.844032 127.171584M284.844032 127.171584c-115.5584 0-223.947776 98.528256-217.213952 279.829504C74.17344 581.248 252.419072 661.400576 344.83712 746.458112c90.252288 83.324928 129.127424 111.325184 166.9376 148.944896 32.045056-32.520192 76.593152-62.5408 165.594112-148.944896 90.73664-88.137728 261.426176-170.113024 277.10976-341.287936 16.54784-179.760128-93.334528-274.101248-211.395584-274.101248-90.05568 0-184.834048 54.746112-232.170496 168.237056C461.74208 182.352896 371.29728 127.171584 284.844032 127.171584L284.844032 127.171584z" p-id="2724"></path></svg>