<?xml version="1.0" standalone="no"?><!DOCTYPE svg PUBLIC "-//W3C//DTD SVG 1.1//EN" "http://www.w3.org/Graphics/SVG/1.1/DTD/svg11.dtd"><svg t="1678524104434" class="icon" viewBox="0 0 1024 1024" version="1.1" xmlns="http://www.w3.org/2000/svg" p-id="8736" xmlns:xlink="http://www.w3.org/1999/xlink" width="128" height="128"><path d="M791.04 908.8a73.728 73.728 0 0 1-40.96-12.8l-182.784-122.88a41.472 41.472 0 0 0-46.592 0L337.92 896a73.728 73.728 0 0 1-114.688-60.928V220.16a93.184 93.184 0 0 1 92.672-92.672h455.68a93.184 93.184 0 0 1 93.184 92.672v614.4a73.728 73.728 0 0 1-73.728 73.728z m-12.8-54.784a22.528 22.528 0 0 0 34.816-18.944V220.16a41.472 41.472 0 0 0-41.472-41.472h-455.68a41.472 41.472 0 0 0-41.472 41.472v614.4a22.528 22.528 0 0 0 34.816 18.432l182.784-122.88a92.672 92.672 0 0 1 102.4 0z" fill="#5184F0" p-id="8737"></path><path d="M646.656 358.4h-204.8a25.6 25.6 0 0 1 0-51.2h204.8a25.6 25.6 0 0 1 0 51.2z" fill="#5184F0" p-id="8738"></path></svg>