<?xml version="1.0" standalone="no"?><!DOCTYPE svg PUBLIC "-//W3C//DTD SVG 1.1//EN" "http://www.w3.org/Graphics/SVG/1.1/DTD/svg11.dtd"><svg t="1671357477876" class="icon" viewBox="0 0 1024 1024" version="1.1" xmlns="http://www.w3.org/2000/svg" p-id="5109" xmlns:xlink="http://www.w3.org/1999/xlink" width="200" height="200"><path d="M413.952 904.6528l-290.9184-290.9184c-46.336-46.336-46.336-121.4976 0-167.8848L446.5664 122.368a118.6304 118.6304 0 0 1 97.024-34.048l250.8288 27.8528c53.7088 5.9904 96.6144 47.4624 104.3456 100.9664l38.3488 264.7552a118.7072 118.7072 0 0 1-33.536 100.9664l-321.792 321.792c-46.336 46.336-121.4976 46.336-167.8336 0z" fill="#FF5D50" p-id="5110"></path><path d="M640.1024 381.4912m-122.7776 0a122.7776 122.7776 0 1 0 245.5552 0 122.7776 122.7776 0 1 0-245.5552 0Z" fill="#FFDF99" p-id="5111"></path></svg>