<?xml version="1.0" standalone="no"?><!DOCTYPE svg PUBLIC "-//W3C//DTD SVG 1.1//EN" "http://www.w3.org/Graphics/SVG/1.1/DTD/svg11.dtd"><svg t="1670508609811" class="icon" viewBox="0 0 1024 1024" version="1.1" xmlns="http://www.w3.org/2000/svg" p-id="32378" xmlns:xlink="http://www.w3.org/1999/xlink" width="200" height="200"><path d="M631.488 543.04c79.616 24.768 143.36 68.992 191.104 132.672 47.744 63.68 72.256 137.152 73.408 220.288H160c1.152-83.2 25.6-156.608 73.408-220.288 47.808-63.68 111.488-107.904 191.104-132.672l103.488 154.816 103.488-154.816z m80.512-199.04c-1.152 51.84-19.2 95.232-53.952 130.048-34.816 34.816-78.144 52.8-130.048 53.952-51.84-1.152-95.232-19.2-130.048-53.952-34.816-34.816-52.8-78.144-53.952-130.048 1.152-51.84 19.2-95.232 53.952-130.048C432.768 179.2 476.16 161.152 528 160c51.84 1.152 95.232 19.2 130.048 53.952 34.816 34.816 52.8 78.144 53.952 130.048z" p-id="32379"></path></svg>