<?xml version="1.0" standalone="no"?><!DOCTYPE svg PUBLIC "-//W3C//DTD SVG 1.1//EN" "http://www.w3.org/Graphics/SVG/1.1/DTD/svg11.dtd"><svg t="1670507149218" class="icon" viewBox="0 0 1024 1024" version="1.1" xmlns="http://www.w3.org/2000/svg" p-id="27111" xmlns:xlink="http://www.w3.org/1999/xlink" width="200" height="200"><path d="M214.80254 810.964648a425.984 425.984 0 1 0 602.421836-602.442864 425.984 425.984 0 1 0-602.421836 602.442864Z" fill="#00A0E9" p-id="27112"></path><path d="M546.8672 327.8848c-43.264-24.1152-89.8048-32.3584-138.752-25.5488-55.1424 7.6288-101.5808 31.5392-133.4784 78.1312-30.0544 43.9296-34.6112 91.4432-11.8784 140.1856 12.3904 26.5728 32.8192 46.6944 56.1664 63.8976 4.5056 3.328 5.9904 6.144 3.8912 11.8272-5.7856 15.8208-10.8032 31.8976-16.7424 49.664 21.4528-10.752 41.2672-20.8384 61.2352-30.5152 2.9696-1.4336 6.9632-1.8432 10.2912-1.3312 11.9808 1.8432 23.808 4.9152 35.84 6.2464 13.7216 1.536 27.5968 1.6896 42.3424 2.5088-12.9536-55.04-1.8944-102.144 36.1984-141.5168 37.4784-38.7072 84.4288-52.6848 137.9328-49.1008-12.3904-47.616-41.3696-81.2544-83.0464-104.448zM381.5936 428.8c-13.568 0-24.6272-11.008-24.6272-24.6272s11.008-24.6272 24.6272-24.6272 24.6272 11.008 24.6272 24.6272-11.0592 24.6272-24.6272 24.6272z m126.976 0c-13.568 0-24.6272-11.008-24.6272-24.6272s11.008-24.6272 24.6272-24.6272c13.568 0 24.6272 11.008 24.6272 24.6272s-11.0592 24.6272-24.6272 24.6272z" fill="#FFFFFF" p-id="27113"></path><path d="M778.4448 577.024c-2.2528-44.2368-25.1392-76.5952-60.672-100.5056-35.9936-24.2688-76.2368-32.256-119.04-26.4192-40.448 5.5808-75.264 22.3744-101.632 54.3744-21.76 26.4192-31.5904 56.832-26.8288 90.88 6.144 43.8272 31.488 74.8032 69.2736 95.744 41.4208 22.9888 85.504 26.7776 130.9696 14.08 6.0416-1.6896 10.7008-1.024 16.0256 2.048 13.2096 7.7312 26.7264 14.9504 41.1648 22.9888-0.6656-2.8672-0.9728-4.5568-1.4336-6.144-3.3792-11.3664-6.6048-22.7328-10.2912-33.9968-1.2288-3.84-0.4608-5.9904 2.7136-8.2944 15.8208-11.52 28.9792-25.7024 40.0384-41.6768 13.0048-18.944 20.8896-39.7824 19.712-63.0784z m-202.8032-16.64a19.66592 19.66592 0 0 1 0-39.3216c10.8544 0 19.6608 8.8064 19.6608 19.6608-0.0512 10.8544-8.8576 19.6608-19.6608 19.6608z m99.9936 0a19.66592 19.66592 0 0 1 0-39.3216 19.66592 19.66592 0 0 1 0 39.3216z" fill="#FFFFFF" p-id="27114"></path></svg>